<svg width="134" height="30" viewBox="0 0 134 30" fill="none" xmlns="http://www.w3.org/2000/svg">
<path d="M6.48 22.8L7.36 18.8H20.36L21.28 22.8H6.48ZM13.8 9.92L9.4 20.2L9.32 21.24L5.44 30H0.12L13.8 0.439999L27.48 30H22.16L18.36 21.48L18.24 20.32L13.8 9.92ZM35.9372 12.96L34.0172 30H29.1372L32.9772 0.599999L44.4572 19.6L55.9772 0.599999L59.8172 30H54.9372L52.9772 12.96L44.4572 27.4L35.9372 12.96ZM79.8091 2H85.2091L75.6891 18.2V30H70.8891V18.24L61.4091 2H66.7691L73.2891 14L79.8091 2ZM86.8434 6.36V2H106.363V6.36H98.9634V30H94.2034V6.36H86.8434ZM111.68 17.16V12.8H131.64V17.16H111.68ZM128.6 2H133.32V30H128.6V2ZM109.8 2H114.52V30H109.8V2Z" fill="black"/>
</svg>
